<?xml version="1.0" encoding="UTF-8"?>
<svg xmlns="http://www.w3.org/2000/svg" viewBox="0 0 330 480" width="330" height="480">
<path fill="#FE6B1B" d="M263.618 190.588C268.627 193.186 275.431 198.787 279.52 202.676C297.564 219.93 307.987 243.665 308.479 268.626C308.86 293.181 299.57 316.9 282.615 334.665C265.402 352.682 243.069 361.887 218.218 362.474C206.052 362.472 194.185 360.569 182.834 356.116C179.276 354.72 176.204 353.131 172.733 351.678C176.661 342.983 182.759 332.998 187.568 324.586L209.512 285.874C223.722 260.361 238.188 234.99 252.906 209.766C255.062 206.081 257.176 202.372 259.247 198.639C260.651 196.055 262.096 193.048 263.618 190.588Z"/><path fill="#FE6B1B" d="M212.197 178.355C213.633 178.158 217.675 178.181 219.201 178.204C234.039 178.432 246.562 181.859 259.781 188.231C258.281 191.307 255.442 195.8 253.644 199L240.303 222.878C227.138 246.272 213.848 269.594 200.431 292.845C190.476 310.149 179.814 328.382 170.662 346.095C170.202 347.05 169.666 348.621 168.57 348.814C166.017 347.734 157.928 341.273 155.677 339.244C137.27 322.65 127.153 300.94 125.667 276.385C124.109 251.546 132.517 227.111 149.029 208.49C165.681 189.7 187.28 179.868 212.197 178.355Z"/><path fill="#FE6B1B" d="M95.9728 127.737C102.11 125.622 109.622 123.677 115.924 122.324C140.868 116.967 165.45 118.012 187.342 132.217C203.598 142.764 210.837 154.342 215.075 172.953C202.92 160.237 190.118 153.741 173.597 148.263C169.798 147.003 164.796 145.315 160.942 144.603C159.888 144.395 158.836 144.177 157.786 143.95C155.101 143.363 152.404 142.834 149.697 142.364L147.864 141.859C145.63 141.448 142.001 140.734 139.751 140.728C141.1 141.194 144.846 142.326 146.151 142.211C147.203 142.448 148.256 142.678 149.311 142.903C150.422 143.125 155.003 144.251 155.735 144.205C156.735 144.455 159.306 145.162 160.207 145.234C161.854 145.662 164.926 146.912 166.7 147.504C179.224 151.685 191.356 157.72 201.622 166.088C203.742 167.816 206.854 170.345 208.694 172.327C202.721 173.469 196.796 174.851 190.933 176.467C185.646 177.879 171.642 182.063 166.802 181.968C160.307 181.841 145.99 176.332 139.842 173.391C120.028 163.914 103.336 148.923 95.9728 127.737Z"/><path fill="#FFA885" fill-opacity="0.4509804" d="M149.697 142.364C152.404 142.834 155.101 143.363 157.786 143.95L155.735 144.205C155.003 144.251 150.422 143.125 149.311 142.903L149.299 142.646L149.697 142.364Z"/><path fill="#FFA885" fill-opacity="0.86666667" d="M139.751 140.728C142.001 140.734 145.63 141.448 147.864 141.859L146.151 142.211C144.846 142.326 141.1 141.194 139.751 140.728Z"/><path fill="#FFB8A1" fill-opacity="0.17647059" d="M157.786 143.95C158.836 144.177 159.888 144.395 160.942 144.603L160.207 145.234C159.306 145.162 156.735 144.455 155.735 144.205L157.786 143.95Z"/><path fill="#FFB8A1" fill-opacity="0.59607846" d="M146.151 142.211L147.864 141.859L149.697 142.364L149.299 142.646L149.311 142.903C148.256 142.678 147.203 142.448 146.151 142.211Z"/></svg>